<?xml version="1.0" encoding="UTF-8"?>
<svg version="1.1" xmlns="http://www.w3.org/2000/svg" width="1017" height="1010">
<path d="M0 0 C335.61 0 671.22 0 1017 0 C1017 333.3 1017 666.6 1017 1010 C681.39 1010 345.78 1010 0 1010 C0 676.7 0 343.4 0 0 Z " fill="#000000" transform="translate(0,0)"/>
<path d="M0 0 C335.61 0 671.22 0 1017 0 C1017 333.3 1017 666.6 1017 1010 C681.39 1010 345.78 1010 0 1010 C0 676.7 0 343.4 0 0 Z M54 51 C54 352.62 54 654.24 54 965 C355.62 965 657.24 965 968 965 C968 663.38 968 361.76 968 51 C666.38 51 364.76 51 54 51 Z " fill="#FCFCFC" transform="translate(0,0)"/>
<path d="M0 0 C36.815625 -0.061875 73.63125 -0.12375 111.5625 -0.1875 C123.15189697 -0.21481201 134.74129395 -0.24212402 146.68188477 -0.27026367 C160.92370605 -0.28381348 160.92370605 -0.28381348 167.60826111 -0.28633118 C172.23896164 -0.28910618 176.86955714 -0.3002683 181.50022888 -0.31672668 C187.434466 -0.3375339 193.36855369 -0.34343158 199.3028239 -0.33921683 C201.46348692 -0.3400962 203.62415598 -0.34590742 205.7847873 -0.35764539 C238.51191514 -0.52696463 271.20639041 4.71175041 300 21 C300.66870117 21.37495605 301.33740234 21.74991211 302.02636719 22.13623047 C311.62671545 27.60100908 319.78205105 33.84649102 327.60839844 41.63183594 C328.83714405 42.83988689 330.10722643 44.00557941 331.3828125 45.1640625 C347.49798504 60.12402554 358.78147843 81.79021933 364 103 C364.21011719 103.80308594 364.42023438 104.60617187 364.63671875 105.43359375 C370.14532801 127.97591676 369.37359578 156.09464309 362 178 C361.66307129 179.06589355 361.66307129 179.06589355 361.31933594 180.15332031 C350.47634604 214.16590144 324.71677008 240.28591606 293.64453125 256.76733398 C289.2864636 259 289.2864636 259 287 259 C287.32049316 259.59087402 287.64098633 260.18174805 287.97119141 260.79052734 C301.08814557 284.97824651 314.12275873 309.20959262 327.10888672 333.46777344 C330.2379096 339.31257107 333.36910423 345.15620549 336.5 351 C343.40689723 363.89167416 343.40689723 363.89167416 346.83807373 370.30116272 C352.73870365 381.32353714 358.64245198 392.34411922 364.57543945 403.34912109 C366.86643527 407.59916544 369.15452332 411.8507687 371.44140625 416.10302734 C372.4534353 417.98409512 373.466402 419.86465885 374.48046875 421.74462891 C375.78276704 424.16090293 377.07977916 426.57992686 378.375 429 C378.93840088 430.04160278 378.93840088 430.04160278 379.51318359 431.10424805 C382 435.77078487 382 435.77078487 382 438 C344.71 438 307.42 438 269 438 C245.05807734 391.25624624 245.05807734 391.25624624 237.47335815 376.39227295 C235.52004779 372.56452205 233.56584268 368.73722811 231.61174011 364.90988159 C228.0540913 357.94174395 224.49683588 350.97340554 220.93994141 344.00488281 C218.42004844 339.06819671 215.89932385 334.13193592 213.37811279 329.19592285 C212.44769986 327.37404323 211.51754624 325.55203115 210.58770752 323.7298584 C202.45250734 307.78800006 194.22282012 291.89745224 186 276 C157.95 275.67 129.9 275.34 101 275 C101 328.79 101 382.58 101 438 C67.67 438 34.34 438 0 438 C0 293.46 0 148.92 0 0 Z " fill="#FEFEFE" transform="translate(343,273)"/>
<path d="M0 0 C335.61 0 671.22 0 1017 0 C1017 333.3 1017 666.6 1017 1010 C681.39 1010 345.78 1010 0 1010 C0 676.7 0 343.4 0 0 Z M11 8 C11 338 11 668 11 1008 C341 1008 671 1008 1011 1008 C1011 678 1011 348 1011 8 C681 8 351 8 11 8 Z " fill="#000000" transform="translate(0,0)"/>
<path d="M0 0 C27.59931736 -0.12032643 27.59931736 -0.12032643 39.43554688 -0.14648438 C47.48695927 -0.16436274 55.5382694 -0.18497115 63.58959961 -0.22631836 C70.08650271 -0.2591037 76.58329509 -0.27689328 83.08027458 -0.28463173 C85.54917072 -0.29014097 88.01806134 -0.3008984 90.48690987 -0.31719017 C112.49488779 -0.4565392 133.76268856 0.34894422 151 16 C162.04818493 28.87735462 164.80772257 40.30706696 164 57 C163.1510491 68.05237959 157.5445348 79.84065337 149.28125 87.26171875 C138.62612253 95.38077992 125.54032843 101.13484461 111.95695496 101.12025452 C110.96562561 101.12162918 109.97429626 101.12300385 108.95292664 101.12442017 C107.87686661 101.12082489 106.80080658 101.11722961 105.69213867 101.11352539 C104.55024078 101.11367142 103.4083429 101.11381744 102.23184204 101.1139679 C98.46053157 101.11327168 94.68927059 101.10549285 90.91796875 101.09765625 C88.30194628 101.09579104 85.68592346 101.09436762 83.06990051 101.09336853 C76.88997222 101.09026356 70.71006167 101.08206141 64.53014117 101.07201904 C56.80199857 101.05973407 49.07385306 101.05426878 41.34570312 101.04882812 C27.56378827 101.03909552 13.78191212 101.01906212 0 101 C0 67.67 0 34.34 0 0 Z " fill="#010101" transform="translate(444,362)"/>
</svg>
